# xmcd
#
# Track frame offsets:
#	150
#	18960
#	33137
#	54299
#	66547
#	82885
#	101394
#	122725
#	140157
#	159836
#	175628
#	184790
#	199746
#	221620
#	233248
#	253079
#
# Disc length: 3647 seconds
#
# Revision: 2
# Processed by: cddbd v1.5.2PL0 Copyright (c) Steve Scherf et al.
# Submitted via: EasyCDDAExtractor 12.0.4.1
#
DISCID=d20e3d10
DTITLE=คาราบาว - ซุปเปอร์3ช่า2
DYEAR=2009
DGENRE=Country
TTITLE0=สามช่าคาราบาว
TTITLE1=วณิพก
TTITLE2=คนล่าฝัน
TTITLE3=เมด อิน ไทยแลนด์
TTITLE4=เวลคัม ทู ไทยแลนด์
TTITLE5=ค้างคาวกินกล้วย
TTITLE6=จตุคามลามทุ่ง
TTITLE7=สามัคคีประเทศไทย
TTITLE8=กำนันผู้ใหญ่บ้าน
TTITLE9=วิชาแะพ
TTITLE10=ราชาเงินผ่อน
TTITLE11=คนจนผู้ยิ่งใหญ่
TTITLE12=พระยอม
TTITLE13=หลวงพ่อคูณ
TTITLE14=สุรชัย 3 ช่า
TTITLE15=บัวลอย
EXTD=
EXTT0=
EXTT1=
EXTT2=
EXTT3=
EXTT4=
EXTT5=
EXTT6=
EXTT7=
EXTT8=
EXTT9=
EXTT10=
EXTT11=
EXTT12=
EXTT13=
EXTT14=
EXTT15=
PLAYORDER=
